# xmcd CD database file
#
# Track frame offsets:
#	150
#	13425
#	23581
#	35962
#	47994
#	58559
#	78655
#	90381
#	104164
#	119657
#	131902
#	143930
#	155592
#	166647
#	177517
#	187449
#	198396
#	211608
#	221976
#	234011
#
# Disc length: 3317 seconds
#
# Revision: 1
# Processed by: cddbd v1.5.2PL0 Copyright (c) Steve Scherf et al.
# Submitted via: CDex 1.51
#
DISCID=310cf314
DTITLE=Otis Rush - Otis Rush and Heroes of Chicago Blues
DYEAR=2010
DGENRE=Blues
TTITLE0=Otis Rush-I can't quit you baby
TTITLE1=J.B. Lenoir-I feel so good
TTITLE2=Homesick James-Crossroads
TTITLE3=Jimmy Reed-Bright lights, big city
TTITLE4=Sunnyland Slim-It's you baby
TTITLE5=Otis Spann Country boy blues
TTITLE6=Koko Taylor-Like heaven to me
TTITLE7=Big Bill Broonzy-Key to the highway
TTITLE8=Big Joe Williams-Baby, please don't go
TTITLE9=Otis Rush-Double trouble
TTITLE10=Fenton Robinson-Say you're leaving
TTITLE11=Lonnie Brooks-I'm not going home
TTITLE12=Junior Wells-Prison bars all around me
TTITLE13=Magic Sam-Out of bad luck
TTITLE14=Earl Hooker-Blues in D natural
TTITLE15=Harold Burrage-I don't care who knows
TTITLE16=Elmore James-Dust my broom
TTITLE17=Walter Horton-Have a good time
TTITLE18=Lee Jackson-Fishin' in my pond
TTITLE19=Mighty Joe Young-Hard Times
EXTD=YEAR: 2010
EXTT0=
EXTT1=
EXTT2=
EXTT3=
EXTT4=
EXTT5=
EXTT6=
EXTT7=
EXTT8=
EXTT9=
EXTT10=
EXTT11=
EXTT12=
EXTT13=
EXTT14=
EXTT15=
EXTT16=
EXTT17=
EXTT18=
EXTT19=
PLAYORDER=
